<mxfile host="65bd71144e">
    <diagram id="c_SrDpSlJFPQijHMXObG" name="Page-1">
        <mxGraphModel dx="1130" dy="447" grid="1" gridSize="10" guides="1" tooltips="1" connect="1" arrows="1" fold="1" page="1" pageScale="1" pageWidth="850" pageHeight="1100" math="0" shadow="0">
            <root>
                <mxCell id="0"/>
                <mxCell id="1" parent="0"/>
                <mxCell id="59" style="edgeStyle=none;html=1;" edge="1" parent="1" target="58">
                    <mxGeometry relative="1" as="geometry">
                        <mxPoint x="390" y="370" as="targetPoint"/>
                        <Array as="points">
                            <mxPoint x="390" y="260"/>
                            <mxPoint x="450" y="260"/>
                        </Array>
                        <mxPoint x="380" y="260" as="sourcePoint"/>
                    </mxGeometry>
                </mxCell>
                <mxCell id="2" value="_printf.c&lt;br&gt;va_list list&lt;br&gt;va_start(list,format)&lt;br&gt;int size&lt;br&gt;&lt;br&gt;while(format || format[i])&lt;br&gt;{&lt;br&gt;if (*format == '%')&lt;br&gt;{&lt;br&gt;get_func_print(&amp;amp;format, size)&lt;br&gt;}&lt;br&gt;else&lt;br&gt;{&lt;br&gt;format++;&lt;br&gt;size++;&lt;br&gt;}&lt;br&gt;&lt;br&gt;return size" style="whiteSpace=wrap;html=1;aspect=fixed;fillColor=#f5f5f5;fontColor=#333333;strokeColor=#666666;" parent="1" vertex="1">
                    <mxGeometry x="110" y="80" width="270" height="270" as="geometry"/>
                </mxCell>
                <mxCell id="13" value="" style="whiteSpace=wrap;html=1;aspect=fixed;" parent="1" vertex="1">
                    <mxGeometry height="10" as="geometry"/>
                </mxCell>
                <mxCell id="61" style="edgeStyle=none;html=1;entryX=1;entryY=0.5;entryDx=0;entryDy=0;" edge="1" parent="1" source="58" target="62">
                    <mxGeometry relative="1" as="geometry">
                        <mxPoint x="210" y="455" as="targetPoint"/>
                    </mxGeometry>
                </mxCell>
                <mxCell id="67" style="edgeStyle=none;html=1;exitX=0;exitY=1;exitDx=0;exitDy=0;entryX=0.25;entryY=0;entryDx=0;entryDy=0;" edge="1" parent="1" source="58" target="65">
                    <mxGeometry relative="1" as="geometry"/>
                </mxCell>
                <mxCell id="68" style="edgeStyle=none;html=1;exitX=0.5;exitY=1;exitDx=0;exitDy=0;entryX=0.65;entryY=0;entryDx=0;entryDy=0;entryPerimeter=0;" edge="1" parent="1" source="58" target="66">
                    <mxGeometry relative="1" as="geometry"/>
                </mxCell>
                <mxCell id="71" style="edgeStyle=none;html=1;exitX=1;exitY=1;exitDx=0;exitDy=0;entryX=0.5;entryY=0;entryDx=0;entryDy=0;" edge="1" parent="1" source="58" target="70">
                    <mxGeometry relative="1" as="geometry"/>
                </mxCell>
                <mxCell id="58" value="get_func print.c(va_list list, int size)&lt;br&gt;{&lt;br&gt;type chercktype&lt;br&gt;{char, function}&lt;br&gt;&lt;br&gt;if char or string" style="whiteSpace=wrap;html=1;aspect=fixed;fillColor=#a20025;fontColor=#ffffff;strokeColor=#6F0000;" vertex="1" parent="1">
                    <mxGeometry x="370" y="380" width="150" height="150" as="geometry"/>
                </mxCell>
                <mxCell id="62" value="main.h&lt;br&gt;typedef struct type {&lt;br&gt;char *string&lt;br&gt;&amp;nbsp;int (*pointer_function)(va_list list)(int);&lt;br&gt;} type;" style="whiteSpace=wrap;html=1;aspect=fixed;fillColor=#1ba1e2;fontColor=#ffffff;strokeColor=#006EAF;" vertex="1" parent="1">
                    <mxGeometry x="20" y="390" width="140" height="140" as="geometry"/>
                </mxCell>
                <mxCell id="65" value="print char" style="whiteSpace=wrap;html=1;aspect=fixed;" vertex="1" parent="1">
                    <mxGeometry x="260" y="590" width="80" height="80" as="geometry"/>
                </mxCell>
                <mxCell id="66" value="print_string" style="whiteSpace=wrap;html=1;aspect=fixed;" vertex="1" parent="1">
                    <mxGeometry x="405" y="600" width="80" height="80" as="geometry"/>
                </mxCell>
                <mxCell id="70" value="print modulo" style="whiteSpace=wrap;html=1;aspect=fixed;" vertex="1" parent="1">
                    <mxGeometry x="550" y="600" width="80" height="80" as="geometry"/>
                </mxCell>
            </root>
        </mxGraphModel>
    </diagram>
</mxfile>
